<svg width="227" height="29" viewBox="0 0 227 29" fill="none" xmlns="http://www.w3.org/2000/svg">
<g opacity="0.5">
<path d="M35.6525 20.3936V19.9617H35.54L35.4099 20.2581L35.2805 19.9617H35.1676V20.3936H35.2475V20.0682L35.3692 20.349H35.452L35.5737 20.0675V20.3936H35.6529H35.6525ZM34.9389 20.3936V20.0356H35.0829V19.9628H34.715V20.0356H34.859V20.3936H34.9382H34.9389Z" fill="#F79410"/>
<path d="M22.8674 22.2465H13.1331V4.75269H22.8676L22.8674 22.2465Z" fill="#9A9CAA"/>
<path d="M13.7503 13.4999C13.7503 9.95133 15.4118 6.79021 17.9992 4.75304C16.0407 3.20874 13.6183 2.37059 11.1242 2.37428C4.98034 2.37428 0 7.35534 0 13.4999C0 19.6446 4.98034 24.6256 11.1242 24.6256C13.6184 24.6293 16.0408 23.7912 17.9994 22.2469C15.4122 20.2101 13.7503 17.0487 13.7503 13.4999Z" fill="#636270" stroke="black" stroke-width="1"/>
<path d="M36 13.4999C36 19.6446 31.0197 24.6256 24.8758 24.6256C22.3813 24.6293 19.9586 23.7911 17.9997 22.2469C20.5878 20.2097 22.2494 17.0487 22.2494 13.4999C22.2494 9.95115 20.5878 6.79021 17.9997 4.75304C19.9586 3.20879 22.3812 2.37066 24.8756 2.37428C31.0195 2.37428 35.9998 7.35534 35.9998 13.4999Z" fill="#9A9CAA" stroke="black" stroke-width="1"/>
<g filter="url(#filter0_d_1_1904)">
<path d="M52.7198 6.03955H48.3641C48.2199 6.03946 48.0804 6.09087 47.9707 6.18452C47.8611 6.27817 47.7885 6.40791 47.766 6.55035L46.0044 17.7197C45.9963 17.7715 45.9995 17.8245 46.0138 17.8749C46.0282 17.9254 46.0533 17.9721 46.0874 18.012C46.1215 18.0518 46.1639 18.0838 46.2116 18.1056C46.2593 18.1275 46.3111 18.1388 46.3636 18.1387H48.443C48.5873 18.1388 48.7269 18.0873 48.8366 17.9935C48.9462 17.8998 49.0188 17.7699 49.0411 17.6273L49.5162 14.6148C49.5385 14.4723 49.611 14.3425 49.7205 14.2488C49.83 14.155 49.9695 14.1034 50.1136 14.1033H51.4925C54.3618 14.1033 56.0177 12.7149 56.4502 9.96349C56.6451 8.75975 56.4584 7.81396 55.8948 7.15158C55.2757 6.42424 54.1777 6.03955 52.7198 6.03955ZM53.2223 10.1189C52.9841 11.6819 51.79 11.6819 50.6353 11.6819H49.978L50.4391 8.76294C50.4526 8.67754 50.4961 8.59977 50.5619 8.54361C50.6276 8.48745 50.7112 8.45659 50.7977 8.45659H51.0989C51.8855 8.45659 52.6275 8.45659 53.0109 8.90497C53.2395 9.17246 53.3096 9.56989 53.2223 10.1189ZM65.74 10.0686H63.6541C63.5677 10.0686 63.4841 10.0994 63.4183 10.1556C63.3526 10.2118 63.3091 10.2895 63.2956 10.3749L63.2032 10.9583L63.0574 10.7469C62.6058 10.0915 61.5989 9.87242 60.5938 9.87242C58.2889 9.87242 56.3202 11.6182 55.9368 14.067C55.7375 15.2886 56.0209 16.4567 56.7138 17.2713C57.3495 18.0203 58.259 18.3324 59.341 18.3324C61.1982 18.3324 62.2281 17.1382 62.2281 17.1382L62.1351 17.7178C62.1268 17.7696 62.1299 17.8226 62.1441 17.8731C62.1582 17.9236 62.1832 17.9705 62.2172 18.0104C62.2512 18.0504 62.2935 18.0825 62.3411 18.1045C62.3888 18.1266 62.4406 18.138 62.4931 18.1381H64.3719C64.5162 18.1382 64.6558 18.0867 64.7654 17.9929C64.8751 17.8991 64.9476 17.7692 64.97 17.6267L66.0973 10.4877C66.1056 10.436 66.1026 10.3831 66.0884 10.3327C66.0743 10.2822 66.0494 10.2355 66.0154 10.1956C65.9814 10.1558 65.9392 10.1238 65.8916 10.1019C65.8441 10.0799 65.7924 10.0686 65.74 10.0686ZM62.8325 14.1282C62.6313 15.3198 61.6855 16.1198 60.4792 16.1198C59.8735 16.1198 59.3895 15.9255 59.0786 15.5574C58.7704 15.1918 58.6532 14.6715 58.7513 14.0919C58.9392 12.9104 59.9009 12.0844 61.0887 12.0844C61.681 12.0844 62.1625 12.2812 62.4797 12.6525C62.7975 13.0276 62.9236 13.5512 62.8325 14.1282ZM76.8488 10.0686H74.7528C74.6539 10.0687 74.5566 10.093 74.4692 10.1393C74.3819 10.1856 74.3072 10.2525 74.2515 10.3342L71.3606 14.5925L70.1352 10.5004C70.0976 10.3756 70.0208 10.2662 69.9162 10.1884C69.8116 10.1107 69.6847 10.0686 69.5544 10.0686H67.4946C67.4368 10.0684 67.3798 10.0821 67.3283 10.1084C67.2769 10.1348 67.2324 10.173 67.1987 10.22C67.165 10.267 67.143 10.3213 67.1346 10.3785C67.1261 10.4357 67.1314 10.4941 67.1501 10.5488L69.4588 17.3242L67.2883 20.3883C67.2497 20.4426 67.2268 20.5065 67.2222 20.573C67.2175 20.6394 67.2312 20.7059 67.2618 20.7651C67.2924 20.8243 67.3386 20.8739 67.3956 20.9086C67.4525 20.9432 67.5178 20.9615 67.5845 20.9615H69.6779C69.7757 20.9616 69.872 20.9381 69.9586 20.8928C70.0453 20.8475 70.1196 20.7819 70.1754 20.7016L77.1469 10.6386C77.1847 10.5842 77.2068 10.5204 77.211 10.4543C77.2151 10.3881 77.201 10.3221 77.1703 10.2634C77.1396 10.2047 77.0934 10.1555 77.0368 10.1211C76.9801 10.0868 76.9151 10.0686 76.8488 10.0686Z" fill="#636270"/>
<path d="M83.7885 6.03921H79.4321C79.288 6.03927 79.1487 6.09075 79.0391 6.18439C78.9296 6.27803 78.8571 6.40767 78.8347 6.55001L77.073 17.7193C77.0648 17.7711 77.0679 17.824 77.0822 17.8744C77.0964 17.9248 77.1214 17.9715 77.1554 18.0114C77.1894 18.0512 77.2316 18.0832 77.2792 18.1051C77.3268 18.1271 77.3786 18.1384 77.4309 18.1384H79.6665C79.7673 18.1383 79.8648 18.1021 79.9414 18.0365C80.018 17.9709 80.0686 17.8801 80.0843 17.7805L80.5842 14.6144C80.6065 14.472 80.679 14.3422 80.7885 14.2484C80.8981 14.1547 81.0375 14.1031 81.1816 14.103H82.5599C85.4298 14.103 87.0851 12.7146 87.5182 9.96315C87.7137 8.75941 87.5258 7.81362 86.9622 7.15124C86.3437 6.4239 85.2463 6.03921 83.7885 6.03921ZM84.291 10.1186C84.0534 11.6815 82.8592 11.6815 81.7039 11.6815H81.0473L81.509 8.7626C81.5223 8.6772 81.5656 8.59936 81.6313 8.54317C81.6969 8.48697 81.7805 8.45614 81.867 8.45625H82.1682C82.9541 8.45625 83.6968 8.45625 84.0802 8.90463C84.3088 9.17212 84.3783 9.56955 84.291 10.1186ZM96.808 10.0682H94.7234C94.637 10.068 94.5533 10.0988 94.4876 10.155C94.4219 10.2112 94.3786 10.2891 94.3655 10.3746L94.2731 10.958L94.1266 10.7465C93.6751 10.0912 92.6688 9.87208 91.6638 9.87208C89.3588 9.87208 87.3908 11.6178 87.0074 14.0667C86.8087 15.2883 87.0908 16.4564 87.7838 17.271C88.4207 18.0199 89.3289 18.332 90.411 18.332C92.2682 18.332 93.298 17.1378 93.298 17.1378L93.2051 17.7174C93.1968 17.7693 93.1998 17.8225 93.2141 17.8731C93.2283 17.9237 93.2534 17.9706 93.2875 18.0106C93.3217 18.0506 93.3641 18.0826 93.4119 18.1046C93.4597 18.1266 93.5117 18.1379 93.5643 18.1378H95.4425C95.5867 18.1377 95.7261 18.0861 95.8356 17.9923C95.9451 17.8986 96.0176 17.7688 96.0399 17.6263L97.1678 10.4873C97.1758 10.4355 97.1725 10.3825 97.1581 10.332C97.1437 10.2816 97.1185 10.2348 97.0843 10.195C97.0501 10.1552 97.0077 10.1232 96.96 10.1014C96.9123 10.0795 96.8605 10.0682 96.808 10.0682ZM93.9006 14.1278C93.7006 15.3195 92.7535 16.1194 91.5472 16.1194C90.9428 16.1194 90.4575 15.9252 90.1467 15.5571C89.8384 15.1915 89.7225 14.6711 89.8193 14.0915C90.0084 12.9101 90.9689 12.084 92.1567 12.084C92.749 12.084 93.2305 12.2808 93.5477 12.6521C93.8668 13.0273 93.9929 13.5508 93.9006 14.1278ZM99.2671 6.34556L97.4793 17.7193C97.4711 17.7711 97.4742 17.824 97.4884 17.8744C97.5027 17.9248 97.5276 17.9715 97.5617 18.0114C97.5957 18.0512 97.6379 18.0832 97.6855 18.1051C97.7331 18.1271 97.7848 18.1384 97.8372 18.1384H99.6346C99.9333 18.1384 100.187 17.9219 100.233 17.627L101.996 6.45829C102.004 6.40652 102.001 6.35359 101.986 6.30314C101.972 6.25269 101.947 6.20592 101.913 6.16604C101.879 6.12616 101.837 6.09411 101.789 6.07211C101.742 6.05011 101.69 6.03867 101.638 6.03857H99.625C99.5386 6.03888 99.4551 6.06994 99.3895 6.12619C99.324 6.18244 99.2805 6.26021 99.2671 6.34556Z" fill="#9A9CAA"/>
</g>
<path fill-rule="evenodd" clip-rule="evenodd" d="M162 20.094C162 21.3506 161.209 21.9363 159.793 21.9363H157.088V20.6797H159.793C160.043 20.6797 160.251 20.6381 160.335 20.5546C160.418 20.4705 160.501 20.3448 160.501 20.1775C160.501 20.0096 160.418 19.8423 160.335 19.7589C160.251 19.6748 160.085 19.6332 159.835 19.6332C158.545 19.591 156.921 19.6748 156.921 17.8322C156.921 16.9943 157.462 16.0728 158.919 16.0728H161.708V17.3294H159.127C158.878 17.3294 158.711 17.3294 158.586 17.4129C158.461 17.5386 158.378 17.6643 158.378 17.8738C158.378 18.0833 158.503 18.209 158.669 18.2931C158.836 18.3347 159.003 18.3766 159.211 18.3766H159.96C160.751 18.3766 161.251 18.5438 161.584 18.8374C161.833 19.1304 162 19.5078 162 20.094ZM156.13 18.8374C155.797 18.5438 155.297 18.3766 154.506 18.3766H153.757C153.549 18.3766 153.382 18.3344 153.216 18.2931C153.049 18.209 152.925 18.0833 152.925 17.8738C152.925 17.6643 152.966 17.5386 153.132 17.4129C153.257 17.3294 153.424 17.3294 153.674 17.3294H156.255V16.0728H153.466C151.967 16.0728 151.467 16.9943 151.467 17.8322C151.467 19.6745 153.091 19.591 154.382 19.6332C154.631 19.6332 154.798 19.6748 154.881 19.7589C154.964 19.8423 155.048 20.0096 155.048 20.1775C155.048 20.3448 154.964 20.4705 154.881 20.5546C154.756 20.6381 154.59 20.6797 154.34 20.6797H151.634V21.9363H154.34C155.755 21.9363 156.546 21.3503 156.546 20.094C156.546 19.5078 156.38 19.1304 156.13 18.8374ZM150.801 20.7222H147.513V19.5494H150.718V18.3772H147.513V17.2878H150.801V16.0734H146.139V21.9366H150.801V20.7222ZM144.64 16.3667C144.181 16.1153 143.64 16.0731 142.933 16.0731H139.727V21.9363H141.142V19.8004H142.641C143.141 19.8004 143.432 19.8426 143.641 20.0518C143.89 20.3448 143.89 20.8476 143.89 21.2246V21.9363H145.264V20.8054C145.264 20.261 145.223 20.0096 145.056 19.7167C144.931 19.5488 144.682 19.3396 144.349 19.2139C144.723 19.0888 145.348 18.586 145.348 17.6643C145.348 16.9946 145.098 16.6175 144.64 16.3667ZM136.73 16.0731H132.275L130.485 17.9998L128.778 16.0731H123.157V21.9363H128.695L130.485 20.0096L132.192 21.9363H134.898V19.9683H136.647C137.854 19.9683 139.062 19.6332 139.062 17.9998C139.061 16.4083 137.812 16.0731 136.73 16.0731ZM143.515 18.5026C143.307 18.586 143.099 18.586 142.849 18.586L141.142 18.6282V17.2875H142.849C143.099 17.2875 143.349 17.2875 143.515 17.4132C143.682 17.4973 143.807 17.6646 143.807 17.916C143.807 18.1674 143.682 18.3769 143.515 18.5026ZM136.73 18.7955H134.898V17.2875H136.73C137.229 17.2875 137.562 17.4973 137.562 17.9998C137.562 18.5026 137.229 18.7955 136.73 18.7955ZM131.359 19.0047L133.524 16.7016V21.4341L131.359 19.0047ZM127.987 20.7222H124.531V19.5494H127.612V18.3772H124.531V17.2878H128.028L129.569 19.005L127.987 20.7222ZM158.128 11.8431H156.13L153.507 7.44542V11.8431H150.677L150.135 10.5446H147.221L146.68 11.8431H145.056C144.39 11.8431 143.515 11.6755 143.016 11.1727C142.558 10.6703 142.308 10.0002 142.308 8.9531C142.308 8.07357 142.433 7.27783 143.057 6.64968C143.473 6.18881 144.223 5.97963 145.18 5.97963H146.512V7.23624H145.18C144.681 7.23624 144.389 7.32003 144.098 7.57141C143.848 7.82279 143.723 8.28335 143.723 8.9115C143.723 9.53965 143.848 10.0005 144.098 10.2938C144.306 10.503 144.681 10.5868 145.055 10.5868H145.68L147.678 5.97994H149.76L152.091 11.5082V5.97963H154.256L156.713 10.0421V5.97963H158.128V11.8431H158.128ZM141.6 5.97963H140.185V11.8431H141.6V5.97963ZM138.644 6.23102C138.186 5.97963 137.687 5.97963 136.979 5.97963H133.774V11.8431H135.147V9.70694H136.646C137.146 9.70694 137.479 9.74884 137.687 9.95832C137.937 10.2516 137.895 10.7544 137.895 11.0892V11.8431H139.31V10.6703C139.31 10.1678 139.269 9.91642 139.061 9.62315C138.936 9.45556 138.686 9.24607 138.395 9.12069C138.769 8.9531 139.394 8.49254 139.394 7.57111C139.394 6.90106 139.102 6.52399 138.644 6.23102ZM132.774 10.6287H129.527V9.45586H132.733V8.24146H129.527V7.19434H132.774V5.97994H128.112V11.8434H132.774V10.6287ZM127.071 5.97963H124.781L123.074 9.95832L121.242 5.97963H118.994V11.5079L116.621 5.97963H114.54L112.042 11.8431H113.541L114.082 10.5446H116.996L117.537 11.8431H120.368V7.23624L122.408 11.8431H123.615L125.655 7.23624V11.8431H127.071V5.97963H127.071ZM149.636 9.28827L148.678 6.98486L147.72 9.28827H149.636ZM137.562 8.36715C137.354 8.49284 137.146 8.49284 136.855 8.49284H135.147V7.19464H136.854C137.104 7.19464 137.395 7.19464 137.562 7.27844C137.728 7.40413 137.812 7.57172 137.812 7.82279C137.812 8.07387 137.729 8.28305 137.562 8.36715ZM114.581 9.28827L115.539 6.98486L116.496 9.28827H114.581ZM161.667 0H112V8.70202L113.707 4.80713H117.329L117.828 5.77045V4.80713H122.075L123.033 6.90106L123.948 4.80713H137.479C138.103 4.80713 138.644 4.93282 139.061 5.26769V4.80713H142.766V5.26769C143.39 4.93251 144.181 4.80713 145.097 4.80713H150.468L150.967 5.77045V4.80713H154.922L155.505 5.77045V4.80713H159.377V13.0159H155.464L154.715 11.7596V13.0159H149.844L149.302 11.6758H148.095L147.554 13.0159H145.014C144.015 13.0159 143.265 12.7645 142.766 12.5134V13.0159H136.73V11.1311C136.73 10.8797 136.688 10.8379 136.521 10.8379H136.313V13.0156H124.656V11.9685L124.24 13.0156H121.784L121.368 12.0104V13.0156H116.663L116.163 11.6755H114.956L114.415 13.0156H112V27H161.667V22.732C161.126 22.9834 160.376 23.1091 159.627 23.1091H156.005V22.6063C155.589 22.9418 154.839 23.1091 154.132 23.1091H142.724V21.2246C142.724 20.9733 142.683 20.9733 142.474 20.9733H142.267V23.1091H138.52V20.8895C137.895 21.1824 137.187 21.1824 136.563 21.1824H136.147V23.1091H131.567L130.485 21.8525L129.278 23.1091H121.908V14.9006H129.402L130.485 16.1566L131.65 14.9006H136.688C137.27 14.9006 138.228 14.9841 138.644 15.4028V14.9006H143.141C143.599 14.9006 144.473 14.9841 145.056 15.4028V14.9006H151.842V15.4031C152.217 15.0679 152.925 14.9009 153.549 14.9009H157.337V15.4031C157.754 15.1101 158.336 14.9009 159.086 14.9009H161.667V0Z" fill="#9A9CAA"/>
<mask id="path-9-inside-2_1_1904" fill="white">
<path fill-rule="evenodd" clip-rule="evenodd" d="M191.355 22.1241H195.843L198.648 4.88638H194.16L191.355 22.1241ZM183.301 16.7426L187.58 4.88638H192.41L185.27 22.1246H180.594L176.694 7.14854C174.163 5.62829 172 5.17826 172 5.17826L172 5.17782C172 5.1778 172 5.17779 172 5.17779L172.083 4.88591H179.156C181.103 4.88591 181.285 6.43798 181.285 6.43798L182.795 14.19C182.795 14.19 182.795 14.1898 182.795 14.1893L182.795 14.1905L182.795 14.1895L183.301 16.7426ZM227 22.1241H222.879L222.354 19.5637H216.648L215.713 22.1241H211.034L217.728 6.17055C217.728 6.17055 218.134 4.88592 219.799 4.88592H223.407L227 22.1241ZM220.299 9.57577L217.941 16.0266H221.625L220.299 9.57577ZM212.026 5.32996L211.385 9.03167C209.465 7.97345 205.094 7.72307 205.094 9.67214C205.094 10.4464 206.083 10.979 207.274 11.6208C209.082 12.5942 211.357 13.819 211.357 16.5199C211.357 20.8358 206.737 22.4216 203.674 22.4216C200.612 22.4216 198.608 21.4482 198.608 21.4482L199.275 17.5777C201.113 19.0528 206.681 19.4719 206.681 17.1327C206.681 16.1498 205.585 15.5701 204.314 14.898C202.56 13.9705 200.473 12.8669 200.473 10.2849C200.473 5.55175 205.762 4.57837 207.989 4.57837C210.05 4.57837 212.026 5.32996 212.026 5.32996Z"/>
</mask>
<path fill-rule="evenodd" clip-rule="evenodd" d="M191.355 22.1241H195.843L198.648 4.88638H194.16L191.355 22.1241ZM183.301 16.7426L187.58 4.88638H192.41L185.27 22.1246H180.594L176.694 7.14854C174.163 5.62829 172 5.17826 172 5.17826L172 5.17782C172 5.1778 172 5.17779 172 5.17779L172.083 4.88591H179.156C181.103 4.88591 181.285 6.43798 181.285 6.43798L182.795 14.19C182.795 14.19 182.795 14.1898 182.795 14.1893L182.795 14.1905L182.795 14.1895L183.301 16.7426ZM227 22.1241H222.879L222.354 19.5637H216.648L215.713 22.1241H211.034L217.728 6.17055C217.728 6.17055 218.134 4.88592 219.799 4.88592H223.407L227 22.1241ZM220.299 9.57577L217.941 16.0266H221.625L220.299 9.57577ZM212.026 5.32996L211.385 9.03167C209.465 7.97345 205.094 7.72307 205.094 9.67214C205.094 10.4464 206.083 10.979 207.274 11.6208C209.082 12.5942 211.357 13.819 211.357 16.5199C211.357 20.8358 206.737 22.4216 203.674 22.4216C200.612 22.4216 198.608 21.4482 198.608 21.4482L199.275 17.5777C201.113 19.0528 206.681 19.4719 206.681 17.1327C206.681 16.1498 205.585 15.5701 204.314 14.898C202.56 13.9705 200.473 12.8669 200.473 10.2849C200.473 5.55175 205.762 4.57837 207.989 4.57837C210.05 4.57837 212.026 5.32996 212.026 5.32996Z" fill="#9A9CAA"/>
<path d="M195.843 22.1241V23.1241H196.693L196.83 22.2848L195.843 22.1241ZM191.355 22.1241L190.368 21.9635L190.179 23.1241H191.355V22.1241ZM198.648 4.88638L199.635 5.04701L199.824 3.88638H198.648V4.88638ZM194.16 4.88638V3.88638H193.31L193.173 4.72578L194.16 4.88638ZM187.58 4.88638V3.88638H186.877L186.639 4.54694L187.58 4.88638ZM183.301 16.7426L182.32 16.9372L183.02 20.4671L184.242 17.0821L183.301 16.7426ZM192.41 4.88638L193.334 5.26906L193.906 3.88638H192.41V4.88638ZM185.27 22.1246V23.1246H185.938L186.193 22.5073L185.27 22.1246ZM180.594 22.1246L179.626 22.3766L179.821 23.1246H180.594V22.1246ZM176.694 7.14854L177.662 6.89659L177.559 6.50146L177.209 6.29125L176.694 7.14854ZM172 5.17826L171.038 4.90474L170.744 5.9384L171.796 6.15729L172 5.17826ZM172 5.17782L172.962 5.45133L173.256 4.41791L172.204 4.19883L172 5.17782ZM172 5.17779L171.038 4.90427L170.744 5.93879L171.797 6.15699L172 5.17779ZM172.083 4.88591V3.88591H171.328L171.121 4.6124L172.083 4.88591ZM181.285 6.43798L180.292 6.55482L180.296 6.59222L180.304 6.62918L181.285 6.43798ZM182.795 14.19L181.844 14.498L183.777 13.9988L182.795 14.19ZM182.795 14.1893L183.746 13.879L181.814 14.3806L182.795 14.1893ZM182.795 14.1905L181.901 14.638L183.777 13.9991L182.795 14.1905ZM182.795 14.1895L183.689 13.742L181.814 14.3841L182.795 14.1895ZM222.879 22.1241L221.9 22.3252L222.064 23.1241H222.879V22.1241ZM227 22.1241V23.1241H228.23L227.979 21.9201L227 22.1241ZM222.354 19.5637L223.333 19.3626L223.169 18.5637H222.354V19.5637ZM216.648 19.5637V18.5637H215.949L215.709 19.2205L216.648 19.5637ZM215.713 22.1241V23.1241H216.412L216.652 22.4673L215.713 22.1241ZM211.034 22.1241L210.112 21.7373L209.53 23.1241H211.034V22.1241ZM217.728 6.17055L218.65 6.55743L218.668 6.5153L218.681 6.47174L217.728 6.17055ZM223.407 4.88592L224.386 4.68188L224.22 3.88592H223.407V4.88592ZM217.941 16.0266L217.002 15.6832L216.511 17.0266H217.941V16.0266ZM220.299 9.57577L221.278 9.37434L220.569 5.92439L219.36 9.23244L220.299 9.57577ZM221.625 16.0266V17.0266H222.852L222.605 15.8251L221.625 16.0266ZM211.385 9.03167L210.903 9.90751L212.131 10.5846L212.371 9.20216L211.385 9.03167ZM212.026 5.32996L213.011 5.50045L213.152 4.68827L212.381 4.39527L212.026 5.32996ZM205.094 9.67214L204.094 9.6719V9.67214H205.094ZM207.274 11.6208L207.749 10.7403L207.749 10.7403L207.274 11.6208ZM198.608 21.4482L197.623 21.2783L197.495 22.0192L198.171 22.3477L198.608 21.4482ZM199.275 17.5777L199.901 16.7979L198.578 15.7357L198.29 17.4078L199.275 17.5777ZM204.314 14.898L203.846 15.782L203.846 15.782L204.314 14.898ZM195.843 21.1241H191.355V23.1241H195.843V21.1241ZM197.661 4.72575L194.856 21.9635L196.83 22.2848L199.635 5.04701L197.661 4.72575ZM194.16 5.88638H198.648V3.88638H194.16V5.88638ZM192.342 22.2847L195.147 5.04699L193.173 4.72578L190.368 21.9635L192.342 22.2847ZM186.639 4.54694L182.36 16.4032L184.242 17.0821L188.52 5.22583L186.639 4.54694ZM192.41 3.88638H187.58V5.88638H192.41V3.88638ZM186.193 22.5073L193.334 5.26906L191.486 4.50371L184.346 21.7419L186.193 22.5073ZM180.594 23.1246H185.27V21.1246H180.594V23.1246ZM175.727 7.40049L179.626 22.3766L181.561 21.8727L177.662 6.89659L175.727 7.40049ZM172 5.17826C171.796 6.15729 171.796 6.15725 171.796 6.15721C171.796 6.1572 171.796 6.15716 171.796 6.15714C171.795 6.15709 171.795 6.15706 171.795 6.15702C171.795 6.15696 171.795 6.15692 171.794 6.15692C171.794 6.1569 171.795 6.15699 171.796 6.15719C171.798 6.15759 171.802 6.15844 171.807 6.15975C171.819 6.16238 171.839 6.16685 171.866 6.17332C171.92 6.18626 172.004 6.20718 172.115 6.23724C172.336 6.29741 172.662 6.39399 173.065 6.5363C173.873 6.82138 174.983 7.28717 176.18 8.00583L177.209 6.29125C175.875 5.48966 174.637 4.97032 173.731 4.65032C173.277 4.49008 172.904 4.37915 172.64 4.30742C172.508 4.27154 172.404 4.24542 172.33 4.22781C172.293 4.21901 172.264 4.21233 172.242 4.20762C172.232 4.20526 172.223 4.2034 172.217 4.202C172.214 4.20131 172.211 4.20073 172.209 4.20027C172.208 4.20004 172.207 4.19983 172.206 4.19966C172.205 4.19957 172.205 4.19949 172.205 4.19942C172.204 4.19939 172.204 4.19934 172.204 4.19932C172.204 4.19927 172.204 4.19923 172 5.17826ZM171.038 4.9043L171.038 4.90474L172.962 5.45178L172.962 5.45133L171.038 4.9043ZM172 5.17779C171.797 6.15699 171.797 6.15699 171.797 6.15699C171.797 6.15699 171.797 6.15699 171.797 6.15699C171.797 6.15699 171.797 6.15699 171.797 6.15699C171.797 6.15699 171.797 6.15699 171.797 6.15699C171.797 6.15699 171.797 6.15699 171.797 6.15699C171.797 6.15698 171.797 6.15698 171.797 6.15698C171.797 6.15698 171.797 6.15697 171.797 6.15697C171.797 6.15696 171.797 6.15695 171.797 6.15694C171.797 6.15693 171.797 6.15691 171.797 6.15689C171.796 6.15686 171.796 6.15683 171.796 6.15681L172.204 4.19883C172.204 4.19878 172.204 4.19874 172.203 4.1987C172.203 4.19868 172.203 4.19866 172.203 4.19864C172.203 4.19863 172.203 4.19862 172.203 4.19862C172.203 4.19861 172.203 4.19861 172.203 4.1986C172.203 4.1986 172.203 4.1986 172.203 4.19859C172.203 4.19859 172.203 4.19859 172.203 4.19859C172.203 4.19859 172.203 4.19859 172.203 4.19859C172.203 4.19859 172.203 4.19859 172.203 4.19859C172.203 4.19859 172.203 4.19859 172.203 4.19859C172.203 4.19859 172.203 4.19859 172 5.17779ZM171.121 4.6124L171.038 4.90427L172.962 5.45131L173.045 5.15943L171.121 4.6124ZM179.156 3.88591H172.083V5.88591H179.156V3.88591ZM181.285 6.43798C182.278 6.32113 182.278 6.32053 182.278 6.31992C182.278 6.3197 182.278 6.31908 182.278 6.31866C182.278 6.3178 182.278 6.31693 182.278 6.31602C182.277 6.31421 182.277 6.3123 182.277 6.31028C182.276 6.30624 182.276 6.30179 182.275 6.29694C182.274 6.28724 182.272 6.27592 182.27 6.26309C182.266 6.23744 182.26 6.20558 182.253 6.16838C182.237 6.09424 182.213 5.99728 182.177 5.88496C182.104 5.66253 181.976 5.36517 181.753 5.06469C181.274 4.42153 180.443 3.88591 179.156 3.88591V5.88591C179.816 5.88591 180.05 6.12633 180.149 6.2592C180.214 6.34673 180.253 6.43739 180.276 6.50597C180.286 6.53915 180.292 6.56345 180.294 6.57419C180.295 6.57943 180.296 6.58091 180.295 6.578C180.295 6.57654 180.294 6.57393 180.294 6.5701C180.294 6.56819 180.293 6.56597 180.293 6.56342C180.293 6.56215 180.293 6.5608 180.293 6.55937C180.292 6.55865 180.292 6.55791 180.292 6.55715C180.292 6.55678 180.292 6.55619 180.292 6.556C180.292 6.55541 180.292 6.55482 181.285 6.43798ZM183.777 13.9988L182.267 6.24677L180.304 6.62918L181.814 14.3812L183.777 13.9988ZM181.844 14.4996C181.844 14.4995 181.844 14.4993 181.844 14.499C181.844 14.4989 181.844 14.4987 181.844 14.4985C181.844 14.4985 181.844 14.4984 181.844 14.4983C181.844 14.4982 181.844 14.4982 181.844 14.4982C181.844 14.4981 181.844 14.4981 181.844 14.4981C181.844 14.4981 181.844 14.4981 181.844 14.4981C181.844 14.498 181.844 14.498 181.844 14.498C181.844 14.498 181.844 14.498 181.844 14.498C181.844 14.498 181.844 14.498 181.844 14.498C181.844 14.498 181.844 14.498 182.795 14.19C183.747 13.882 183.747 13.882 183.747 13.882C183.747 13.882 183.747 13.882 183.747 13.882C183.747 13.8819 183.747 13.8819 183.747 13.8819C183.747 13.8819 183.747 13.8819 183.747 13.8819C183.747 13.8819 183.747 13.8819 183.747 13.8819C183.747 13.8819 183.747 13.8818 183.747 13.8818C183.747 13.8818 183.747 13.8817 183.747 13.8817C183.747 13.8816 183.746 13.8815 183.746 13.8813C183.746 13.8811 183.746 13.8809 183.746 13.8806C183.746 13.8801 183.746 13.8796 183.746 13.879L181.844 14.4996ZM183.777 13.9991L183.777 13.998L181.814 14.3806L181.814 14.3818L183.777 13.9991ZM181.901 14.6371L181.901 14.638L183.69 13.7429L183.689 13.742L181.901 14.6371ZM184.282 16.5481L183.776 13.995L181.814 14.3841L182.32 16.9372L184.282 16.5481ZM222.879 23.1241H227V21.1241H222.879V23.1241ZM221.374 19.7648L221.9 22.3252L223.859 21.923L223.333 19.3626L221.374 19.7648ZM216.648 20.5637H222.354V18.5637H216.648V20.5637ZM216.652 22.4673L217.588 19.9069L215.709 19.2205L214.773 21.781L216.652 22.4673ZM211.034 23.1241H215.713V21.1241H211.034V23.1241ZM216.806 5.78367L210.112 21.7373L211.957 22.511L218.65 6.55743L216.806 5.78367ZM219.799 3.88592C218.674 3.88592 217.902 4.33298 217.419 4.8341C217.187 5.0745 217.033 5.31523 216.934 5.50015C216.885 5.59322 216.848 5.67428 216.823 5.73719C216.81 5.76873 216.8 5.79596 216.792 5.81816C216.788 5.82927 216.784 5.83914 216.781 5.8477C216.78 5.85197 216.779 5.85592 216.777 5.85954C216.777 5.86134 216.776 5.86306 216.776 5.8647C216.775 5.86552 216.775 5.86632 216.775 5.86709C216.775 5.86748 216.775 5.86804 216.775 5.86824C216.774 5.8688 216.774 5.86935 217.728 6.17055C218.681 6.47174 218.681 6.47229 218.681 6.47283C218.681 6.473 218.681 6.47354 218.681 6.47389C218.68 6.47458 218.68 6.47526 218.68 6.47593C218.68 6.47725 218.679 6.47851 218.679 6.4797C218.678 6.48207 218.677 6.48418 218.677 6.48603C218.675 6.48972 218.674 6.49238 218.674 6.49408C218.673 6.49746 218.673 6.4971 218.674 6.49351C218.677 6.48617 218.685 6.46686 218.7 6.4395C218.73 6.38355 218.781 6.30313 218.859 6.22237C218.995 6.08117 219.259 5.88592 219.799 5.88592V3.88592ZM223.407 3.88592H219.799V5.88592H223.407V3.88592ZM227.979 21.9201L224.386 4.68188L222.428 5.08996L226.021 22.3282L227.979 21.9201ZM218.88 16.3699L221.238 9.9191L219.36 9.23244L217.002 15.6832L218.88 16.3699ZM221.625 15.0266H217.941V17.0266H221.625V15.0266ZM219.319 9.7772L220.646 16.228L222.605 15.8251L221.278 9.37434L219.319 9.7772ZM212.371 9.20216L213.011 5.50045L211.04 5.15948L210.4 8.86119L212.371 9.20216ZM206.094 9.67238C206.094 9.6514 206.068 9.59495 206.277 9.48376C206.527 9.35071 206.961 9.24527 207.556 9.2235C208.748 9.17988 210.133 9.48349 210.903 9.90751L211.868 8.15583C210.717 7.52163 208.956 7.17093 207.483 7.22484C206.745 7.25184 205.967 7.38311 205.337 7.71822C204.666 8.07519 204.094 8.71835 204.094 9.6719L206.094 9.67238ZM207.749 10.7403C207.127 10.4056 206.668 10.1548 206.353 9.90869C206.028 9.65416 206.094 9.5856 206.094 9.67214H204.094C204.094 10.533 204.653 11.1178 205.121 11.4836C205.599 11.8578 206.23 12.1942 206.8 12.5013L207.749 10.7403ZM212.357 16.5199C212.357 14.8422 211.633 13.6139 210.687 12.7023C209.777 11.8255 208.63 11.2151 207.749 10.7403L206.8 12.5013C207.726 12.9999 208.621 13.4886 209.3 14.1427C209.943 14.7621 210.357 15.4968 210.357 16.5199H212.357ZM203.674 23.4216C205.348 23.4216 207.457 22.994 209.184 21.9435C210.945 20.8718 212.357 19.1067 212.357 16.5199H210.357C210.357 18.2491 209.459 19.4348 208.144 20.235C206.794 21.0563 205.063 21.4216 203.674 21.4216V23.4216ZM198.608 21.4482C198.171 22.3477 198.172 22.3478 198.172 22.3479C198.172 22.348 198.172 22.3481 198.172 22.3482C198.173 22.3484 198.173 22.3486 198.174 22.3489C198.175 22.3493 198.176 22.3499 198.177 22.3504C198.179 22.3516 198.182 22.353 198.186 22.3546C198.192 22.3578 198.201 22.3619 198.212 22.3668C198.233 22.3767 198.262 22.3899 198.299 22.406C198.373 22.4381 198.476 22.4817 198.608 22.5328C198.872 22.635 199.25 22.7675 199.727 22.899C200.681 23.1616 202.038 23.4216 203.674 23.4216V21.4216C202.248 21.4216 201.072 21.1948 200.258 20.9708C199.852 20.8588 199.538 20.7481 199.33 20.6677C199.227 20.6276 199.15 20.5951 199.101 20.574C199.077 20.5634 199.061 20.5558 199.051 20.5514C199.046 20.5492 199.043 20.5478 199.042 20.5474C199.042 20.5471 199.042 20.5471 199.042 20.5473C199.043 20.5474 199.043 20.5476 199.043 20.5478C199.044 20.5479 199.044 20.5481 199.044 20.5482C199.044 20.5483 199.045 20.5484 199.045 20.5484C199.045 20.5485 199.045 20.5487 198.608 21.4482ZM198.29 17.4078L197.623 21.2783L199.594 21.6181L200.261 17.7476L198.29 17.4078ZM205.681 17.1327C205.681 17.2171 205.672 17.339 205.346 17.4965C204.986 17.6708 204.402 17.7841 203.665 17.7856C202.946 17.787 202.165 17.6817 201.468 17.4938C200.754 17.3016 200.21 17.0453 199.901 16.7979L198.649 18.3575C199.26 18.8476 200.101 19.1969 200.948 19.425C201.811 19.6575 202.767 19.7873 203.669 19.7855C204.553 19.7838 205.477 19.6554 206.218 19.2966C206.994 18.9209 207.681 18.218 207.681 17.1327H205.681ZM203.846 15.782C204.51 16.1328 205.003 16.3982 205.343 16.6749C205.667 16.9384 205.681 17.0731 205.681 17.1327H207.681C207.681 16.2094 207.146 15.5628 206.605 15.1228C206.079 14.6958 205.389 14.3353 204.781 14.014L203.846 15.782ZM199.473 10.2849C199.473 13.5519 202.198 14.9103 203.846 15.782L204.781 14.014C202.922 13.0308 201.473 12.182 201.473 10.2849H199.473ZM207.989 3.57837C206.772 3.57837 204.721 3.83784 202.934 4.7701C201.1 5.72689 199.473 7.44787 199.473 10.2849H201.473C201.473 8.38883 202.492 7.25651 203.859 6.54332C205.273 5.80559 206.979 5.57837 207.989 5.57837V3.57837ZM212.026 5.32996C212.381 4.39527 212.381 4.39521 212.381 4.39514C212.381 4.39512 212.381 4.39505 212.381 4.395C212.38 4.39489 212.38 4.39478 212.38 4.39465C212.379 4.3944 212.378 4.3941 212.377 4.39376C212.375 4.39308 212.373 4.39221 212.37 4.39117C212.365 4.3891 212.357 4.38633 212.348 4.38291C212.329 4.37607 212.303 4.36663 212.271 4.35497C212.205 4.33166 212.111 4.29941 211.993 4.26121C211.758 4.18494 211.424 4.08438 211.023 3.98402C210.227 3.78518 209.131 3.57837 207.989 3.57837V5.57837C208.908 5.57837 209.83 5.74735 210.538 5.92431C210.888 6.01185 211.177 6.09919 211.377 6.16383C211.476 6.1961 211.553 6.22256 211.603 6.24036C211.628 6.24925 211.647 6.25596 211.658 6.26013C211.664 6.26222 211.668 6.26367 211.67 6.26444C211.671 6.26482 211.671 6.26503 211.671 6.26507C211.671 6.26509 211.671 6.26506 211.671 6.26499C211.671 6.26496 211.671 6.26491 211.671 6.26486C211.671 6.26483 211.671 6.26477 211.671 6.26476C211.67 6.26471 211.67 6.26465 212.026 5.32996Z" fill="black" mask="url(#path-9-inside-2_1_1904)"/>
</g>
<defs>
<filter id="filter0_d_1_1904" x="42" y="6.03857" width="64" height="22.9229" filterUnits="userSpaceOnUse" color-interpolation-filters="sRGB">
<feFlood flood-opacity="0" result="BackgroundImageFix"/>
<feColorMatrix in="SourceAlpha" type="matrix" values="0 0 0 0 0 0 0 0 0 0 0 0 0 0 0 0 0 0 127 0" result="hardAlpha"/>
<feOffset dy="4"/>
<feGaussianBlur stdDeviation="2"/>
<feComposite in2="hardAlpha" operator="out"/>
<feColorMatrix type="matrix" values="0 0 0 0 0 0 0 0 0 0 0 0 0 0 0 0 0 0 0.25 0"/>
<feBlend mode="normal" in2="BackgroundImageFix" result="effect1_dropShadow_1_1904"/>
<feBlend mode="normal" in="SourceGraphic" in2="effect1_dropShadow_1_1904" result="shape"/>
</filter>
</defs>
</svg>
